<svg width="175" height="40" viewBox="0 0 175 40" fill="none" xmlns="http://www.w3.org/2000/svg">
<path d="M11.6871 24.5874C8.06278 25.9707 6.38329 26.9434 6.38329 26.9434C5.97646 27.1537 5.46235 27.6528 5.24269 28.0536L2.47133 33.0852C2.25124 33.4848 2.42945 33.6972 2.86705 33.558C2.86705 33.558 3.97945 33.2012 5.05893 32.8858C7.68116 32.1159 12.5277 30.9755 12.5277 30.9755C12.9752 30.8706 13.5213 30.4575 13.7414 30.0575L17.5581 23.1279C17.7777 22.7271 17.6012 22.5175 17.1645 22.6602C17.1645 22.6602 14.4474 23.5326 11.6871 24.5874Z" fill="white"/>
<path d="M36.305 27.5697C36.7631 27.532 36.9576 27.1744 36.7375 26.7752L33.0832 20.1403C32.8627 19.7399 32.3106 19.4677 31.8559 19.5359L24.5345 20.774C24.0837 20.8633 23.8956 21.2628 24.1153 21.6624L27.4114 27.6484C27.632 28.0489 28.1858 28.3397 28.6439 28.2982L36.305 27.5697Z" fill="white"/>
<path d="M31.3348 16.9655L30.6677 15.754L29.3852 13.4239L27.6664 10.3035C27.4463 9.90304 26.9117 9.7041 26.4801 9.85944C21.4749 11.3109 16.5236 13.5475 14.1711 15.1039C12.8689 15.9657 11.7365 16.899 11.7365 16.899C11.3835 17.1907 10.9142 17.7557 10.6937 18.1562L7.61253 23.7507C7.39287 24.1494 7.5527 24.32 7.96979 24.127C7.96979 24.127 8.77022 23.7579 9.66637 23.3824C12.7083 22.1049 16.0365 20.9837 19.5604 20.0529C19.6275 20.0359 19.6954 20.0182 19.7621 20.0008C23.6604 18.996 30.9104 17.8252 30.9104 17.8252C31.3638 17.7524 31.5553 17.3659 31.3348 16.9655Z" fill="white"/>
<path d="M13.9656 13.0984C13.9656 13.0984 17.4404 11.0544 19.7963 10.0766C21.8681 9.21611 25.5506 8.15113 25.5506 8.15113C25.9921 8.0233 26.1724 7.59198 25.9532 7.19198L22.5412 0.99812C21.8365 -0.135002 20.7485 -0.0901342 20.0741 1.13399L20.0656 1.14034L13.6472 12.7945C13.4271 13.1941 13.5707 13.3312 13.9656 13.0984Z" fill="white"/>
<path d="M42.4479 37.1444L38.5111 29.9969C38.291 29.5973 37.8526 29.2862 37.5385 29.304L37.2474 29.3247C22.6688 30.3228 12.0214 32.7528 5.6564 34.614C3.76879 35.166 1.55085 35.9224 1.55085 35.9224C1.11623 36.0701 0.807257 36.153 0.359394 36.9175C0.359394 36.9175 0.326059 36.9793 0.242726 37.1325L0.244865 37.1384C-0.307272 38.33 0.32435 39.2752 1.71922 39.2752L1.78888 39.2832H40.9726C42.3684 39.2832 42.9991 38.3351 42.4479 37.1444Z" fill="white"/>
<path d="M49.8994 24.4138H54.9387L53.6972 19.9909C53.113 17.9342 52.6015 15.5046 52.419 14.0091C52.1998 15.5046 51.6891 17.9042 51.1412 19.9909L49.8994 24.4138ZM55.5592 26.7194H49.2784L47.8545 31.8297C47.7451 32.173 47.6361 32.3279 46.4665 32.3279C46.0656 32.3279 45.2985 32.2966 44.6041 32.2356L51.1049 10.8007C51.1776 10.4896 51.5797 10.3643 52.2365 10.3643C52.7472 10.3643 53.2583 10.396 53.6241 10.4578L60.1605 31.7975C60.2327 32.1416 60.0502 32.3279 58.8827 32.3279C58.4442 32.3279 57.86 32.3279 57.1297 32.2657L55.5592 26.7194Z" fill="white"/>
<path d="M61.6569 17.4367C63.0817 16.9063 65.492 16.3768 67.4266 16.3768C71.2599 16.3768 72.5744 17.5298 72.5744 20.5503V31.7668C72.5744 32.2659 72.5022 32.2659 69.5082 32.2659V21.2983C69.5082 19.3368 69.1424 18.5893 67.3172 18.5893C66.5497 18.5893 65.418 18.7755 64.6146 19.1501V31.7668C64.6146 32.2659 64.5415 32.2659 61.6569 32.2659V17.4367Z" fill="white"/>
<path d="M75.2401 10.5203C75.2401 9.36646 75.7512 9.36645 78.1978 9.36645V17.5908C79.3303 16.7506 80.8999 16.3777 82.288 16.3777C85.4281 16.3777 86.0854 17.8723 86.0854 20.489V31.7673C86.0854 32.2655 85.9397 32.2655 83.0179 32.2655V21.206C83.0179 19.8355 82.7256 18.7138 80.9367 18.7138C80.1337 18.7138 79.0747 18.9313 78.1978 19.5866V31.7673C78.1978 32.2655 78.1615 32.2655 75.2401 32.2655V10.5203Z" fill="white"/>
<path d="M93.9714 24.6329C92.512 24.6329 91.2697 25.0689 91.2697 27.7796C91.2697 30.0543 92.2188 30.4589 93.6441 30.4589C94.4462 30.4589 95.2492 30.2092 95.5782 29.9298C95.6881 28.9021 95.6881 26.5957 95.6881 24.914C95.2133 24.726 94.4829 24.6329 93.9714 24.6329ZM88.6034 17.2183C89.2248 16.8754 91.3791 16.3768 94.1547 16.3768C97.2936 16.3768 98.6812 17.3741 98.6812 20.1783V21.8291C98.6812 25.4117 98.6453 29.1502 98.4633 31.5188C97.4774 32.0162 95.7607 32.5779 93.3876 32.5779C90.7218 32.6079 88.1658 32.1106 88.1658 27.841C88.1658 23.5116 90.5752 22.732 93.0227 22.732C93.8252 22.732 94.9582 22.8259 95.6881 23.1375V20.6765C95.6881 19.2128 94.8847 18.8386 93.4235 18.8386C91.5983 18.8386 89.6633 19.1502 88.6034 19.5243C88.2757 19.0257 88.2026 18.4649 88.2026 18.0907C88.2026 17.7483 88.3124 17.4045 88.6034 17.2183Z" fill="white"/>
<path d="M101.311 17.4367C102.736 16.9063 105.145 16.3768 107.081 16.3768C110.914 16.3768 112.228 17.5298 112.228 20.5503V31.7668C112.228 32.2659 112.155 32.2659 109.161 32.2659V21.2983C109.161 19.3368 108.797 18.5893 106.97 18.5893C106.203 18.5893 105.072 18.7755 104.269 19.1501V31.7668C104.269 32.2659 104.196 32.2659 101.311 32.2659V17.4367Z" fill="white"/>
<path d="M139.761 31.4558C138.372 32.1106 136.291 32.5775 134.321 32.5775C129.974 32.5775 128.842 30.8962 128.842 27.4059V17.2184C128.842 16.6888 128.842 16.6888 131.91 16.6888V27.6243C131.91 29.6484 132.384 30.3655 134.357 30.3655C135.014 30.3655 136.036 30.241 136.803 29.805V17.2184C136.803 16.6888 136.84 16.6888 139.761 16.6888V31.4558Z" fill="white"/>
<path d="M145.347 23.8839C146.735 23.9161 148.999 23.8543 150.276 23.5427C150.423 22.9823 150.46 22.2657 150.46 21.6727C150.423 19.4301 149.949 18.5891 148.378 18.5891C146.881 18.5891 145.566 19.6794 145.347 23.8839ZM153.344 21.3925C153.344 22.7639 153.234 24.3216 152.943 25.4432C150.423 25.8483 147.064 25.9414 145.31 25.9414C145.458 29.2439 146.479 30.115 148.707 30.115C150.168 30.115 151.627 29.7429 152.87 29.1499C153.052 29.6181 153.125 30.3656 153.125 30.8634C153.125 31.8293 150.824 32.5776 148.086 32.5776C144.69 32.5776 142.244 31.362 142.244 25.2879C142.244 17.4974 145.494 16.377 148.707 16.377C151.773 16.377 153.344 18.0282 153.344 21.3925" fill="white"/>
<path d="M155.57 17.779C156.995 16.9375 158.748 16.3766 160.537 16.3766C162.399 16.3766 163.093 16.8444 163.093 17.685C163.093 18.0283 163.021 18.6505 162.765 19.1813C162.217 18.932 161.632 18.8071 161.012 18.8071C160.208 18.8071 159.296 19.0255 158.601 19.5242L158.566 31.7675C158.566 32.2657 158.529 32.2657 155.57 32.2657V17.779Z" fill="white"/>
<path d="M170.031 24.6329C168.571 24.6329 167.328 25.0689 167.328 27.7796C167.328 30.0543 168.278 30.4589 169.702 30.4589C170.505 30.4589 171.309 30.2092 171.638 29.9298C171.746 28.9021 171.746 26.5957 171.746 24.914C171.272 24.726 170.541 24.6329 170.031 24.6329ZM164.663 17.2183C165.284 16.8754 167.439 16.3768 170.213 16.3768C173.354 16.3768 174.741 17.3741 174.741 20.1783V21.8291C174.741 25.4117 174.704 29.1502 174.522 31.5188C173.536 32.0162 171.82 32.5779 169.446 32.5779C166.781 32.6079 164.224 32.1106 164.224 27.841C164.224 23.5116 166.635 22.732 169.081 22.732C169.884 22.732 171.018 22.8259 171.746 23.1375V20.6765C171.746 19.2128 170.944 18.8386 169.482 18.8386C167.658 18.8386 165.722 19.1502 164.663 19.5243C164.336 19.0257 164.262 18.4649 164.262 18.0907C164.262 17.7483 164.371 17.4045 164.663 17.2183" fill="white"/>
<path d="M120.687 30.0061C120.447 30.0061 120.222 29.9795 120.01 29.9325C118.557 29.6116 117.717 28.2042 117.508 25.7276C117.471 25.3132 117.453 24.8692 117.453 24.3951C117.453 24.0976 117.464 23.814 117.479 23.5405C117.566 22.0125 117.889 20.8595 118.451 20.1166C119.097 19.2607 120.03 18.8451 121.305 18.8451C121.975 18.8451 122.644 18.9018 123.301 19.0148V29.1947C123.214 29.262 123.124 29.3251 123.032 29.3848C122.381 29.8025 121.611 30.0061 120.687 30.0061ZM117.361 37.5659C116.803 37.582 116.298 37.5774 115.895 37.5376C115.729 38.0925 115.839 38.6504 115.961 39.011C116.072 39.3412 116.294 39.6459 116.647 39.7598C116.81 39.8008 117.054 39.833 117.361 39.8491C117.514 39.858 117.227 39.8478 117.411 39.8491C120.245 39.8089 122.039 39.0681 123.737 37.6332C124.287 37.1693 124.74 36.6453 125.117 36.0747C125.94 34.8345 126.364 33.3543 126.364 31.6408V17.1448L126.183 17.0948C124.678 16.6868 123.036 16.4806 121.305 16.4806C118.96 16.4806 117.195 17.1304 116.066 18.4116C114.993 19.629 114.435 21.5545 114.397 24.1268C114.397 24.2161 114.392 24.302 114.392 24.3951C114.392 25.4669 114.484 26.4243 114.659 27.2798C115.07 29.2734 115.953 30.6779 117.308 31.4863C118.222 32.032 119.347 32.3088 120.687 32.3088C121.579 32.3088 122.457 32.1505 123.301 31.836V31.9431C123.301 33.5185 122.786 34.8011 121.783 35.7687C121.702 35.8483 121.623 35.9283 121.535 36.0044C120.604 36.7909 119.888 37.3018 118.387 37.4681C117.779 37.5367 117.587 37.5592 117.361 37.5659" fill="white"/>
</svg>
